<svg width="40" height="40" viewBox="0 0 40 40" fill="none" xmlns="http://www.w3.org/2000/svg">
    <path d="M20 0C31.0457 2.57703e-07 40 8.95431 40 20C40 31.0457 31.0457 40 20 40C8.95431 40 2.5772e-07 31.0457 0 20C0 8.9543 8.9543 0 20 0ZM29.8271 13.709C30.163 12.3623 29.3134 11.751 28.4336 12.1504L9.16895 19.5791C7.85403 20.1065 7.8613 20.8401 8.92871 21.167L13.873 22.71L25.3184 15.4893C25.8586 15.1617 26.3542 15.338 25.9473 15.6992L16.6729 24.0684H16.6738L16.333 29.167C16.8328 29.167 17.0541 28.9382 17.333 28.667L19.7354 26.3311L24.7334 30.0234C25.6531 30.5308 26.3168 30.2675 26.5459 29.1689L29.8271 13.709Z" fill="#084DA7" />
</svg>