<svg width="32" height="32" viewBox="0 0 32 32" fill="none" xmlns="http://www.w3.org/2000/svg">
    <path d="M16 0C24.8366 0 32 7.16344 32 16C32 24.8366 24.8366 32 16 32C7.16344 32 0 24.8366 0 16C2.57703e-07 7.16344 7.16344 2.5772e-07 16 0ZM23.8613 10.9668C24.1299 9.8896 23.4509 9.40125 22.7471 9.7207L7.33496 15.6631C6.28295 16.085 6.28943 16.6721 7.14355 16.9336L11.0986 18.168L20.2549 12.3916C20.6871 12.1296 21.0834 12.2706 20.7578 12.5596L13.3389 19.2549L13.0664 23.333C13.4662 23.333 13.6431 23.1505 13.8662 22.9336L15.7881 21.0645L19.7871 24.0186C20.5227 24.4243 21.0531 24.2137 21.2363 23.335L23.8613 10.9668Z" fill="white" />
</svg>