<svg width="32" height="32" viewBox="0 0 32 32" fill="none" xmlns="http://www.w3.org/2000/svg">
    <path d="M16 0C24.8366 0 32 7.16344 32 16C32 24.8366 24.8366 32 16 32C7.16344 32 0 24.8366 0 16C2.57703e-07 7.16344 7.16344 2.5772e-07 16 0ZM15.6738 11.7354C14.7581 11.7263 13.983 11.7386 13.5439 11.9492C13.2519 12.0893 13.0267 12.4017 13.1641 12.4199C13.3335 12.442 13.7172 12.5221 13.9209 12.7939C14.1817 13.1426 14.1749 13.921 14.1748 13.9336C14.1748 13.9336 14.326 16.1055 13.8223 16.376C13.4767 16.5611 13.0024 16.1837 11.9834 14.4561C11.467 13.5802 11.0754 12.6125 11.0674 12.5928C11.0674 12.5928 10.9914 12.4099 10.8555 12.3115C10.691 12.1927 10.4609 12.1553 10.4609 12.1553L8.02344 12.1709C8.02344 12.1709 7.65685 12.1814 7.52246 12.3379C7.40459 12.4747 7.51009 12.7568 7.5127 12.7637C7.5127 12.7637 9.42203 17.1486 11.584 19.3584C13.5664 21.3837 15.8174 21.251 15.8174 21.251H16.8369C16.8369 21.251 17.145 21.2171 17.3027 21.0508C17.4471 20.8984 17.4424 20.6104 17.4424 20.6104C17.4421 20.5828 17.43 19.2655 18.0586 19.0693C18.6845 18.8752 19.4881 20.368 20.3408 20.9424C20.9778 21.3716 21.4635 21.2843 21.4746 21.2822L23.7539 21.251C23.7539 21.251 24.9459 21.1789 24.3809 20.2588C24.3341 20.1834 24.0513 19.5778 22.6865 18.334C21.2567 17.0321 21.4489 17.2424 23.1699 14.9902C24.2182 13.6188 24.6377 12.781 24.5068 12.4229C24.3825 12.0804 23.6104 12.1709 23.6104 12.1709L21.0449 12.1865C21.0449 12.1865 20.8549 12.1616 20.7139 12.2441C20.5761 12.3253 20.4863 12.5146 20.4863 12.5146C20.4826 12.5245 20.0782 13.5798 19.5391 14.4785C18.3963 16.3827 17.9399 16.4832 17.7529 16.3652C17.318 16.0891 17.4268 15.2578 17.4268 14.667C17.4268 12.821 17.7117 12.0516 16.8711 11.8525C16.5924 11.7862 16.3871 11.7427 15.6738 11.7354Z" fill="white" />
</svg>