<svg width="40" height="40" viewBox="0 0 40 40" fill="none" xmlns="http://www.w3.org/2000/svg">
    <path d="M20 0C31.0457 2.57703e-07 40 8.95431 40 20C40 31.0457 31.0457 40 20 40C8.95431 40 2.5772e-07 31.0457 0 20C0 8.9543 8.9543 0 20 0ZM19.5918 14.6689C18.4472 14.6577 17.4785 14.6733 16.9297 14.9365C16.5647 15.1117 16.2832 15.5027 16.4551 15.5254C16.6668 15.553 17.1467 15.6524 17.4014 15.9922C17.7274 16.428 17.7189 17.4011 17.7188 17.417C17.7188 17.417 17.9076 20.1337 17.2773 20.4707C16.8454 20.7019 16.2523 20.2291 14.9785 18.0693C14.3265 16.9633 13.834 15.7402 13.834 15.7402C13.8299 15.7306 13.7355 15.5099 13.5693 15.3896C13.3638 15.2411 13.0762 15.1943 13.0762 15.1943L10.0283 15.2139C10.0117 15.2144 9.56718 15.2299 9.40234 15.4219C9.2533 15.595 9.3916 15.9551 9.3916 15.9551C9.4179 16.0154 11.793 21.4503 14.4805 24.1973C16.9585 26.729 19.7715 26.5635 19.7715 26.5635H21.0459C21.0459 26.5635 21.4317 26.5214 21.6289 26.3135C21.8068 26.1254 21.8029 25.7728 21.8027 25.7637C21.8027 25.7637 21.7787 24.0852 22.5723 23.8369C23.3548 23.5932 24.3604 25.4607 25.4268 26.1787C26.2321 26.7212 26.8438 26.6025 26.8438 26.6025L29.6934 26.5635C29.7197 26.5618 31.1764 26.463 30.4766 25.3232C30.4181 25.229 30.0644 24.4717 28.3584 22.917C26.5712 21.2897 26.8114 21.5528 28.9629 18.7373C30.2733 17.0229 30.7966 15.9759 30.6328 15.5283C30.4782 15.1039 29.5284 15.2122 29.5137 15.2139L26.3057 15.2334C26.2945 15.232 26.0636 15.2047 25.8916 15.3057C25.7196 15.4072 25.6084 15.6436 25.6084 15.6436C25.6025 15.659 25.097 16.9766 24.4238 18.0986C22.9955 20.4787 22.4241 20.6045 22.1904 20.457C21.6472 20.1117 21.7832 19.0723 21.7832 18.334C21.7832 16.0264 22.1396 15.0643 21.0889 14.8154C20.7405 14.7325 20.4837 14.6782 19.5918 14.6689Z" fill="#084DA7" />
</svg>